<svg width="370" height="367" viewBox="0 0 370 367" fill="none" xmlns="http://www.w3.org/2000/svg">
<g opacity="0.08">
<path opacity="0.08" d="M7.28054 225.684C7.28054 225.684 18.8998 288.315 77.8328 322.253C136.756 356.193 210.007 348.096 269.547 343.097C329.088 338.098 369.262 297.825 368.396 246.35C367.53 194.872 320.246 186.935 287.061 133.239C253.876 79.552 253.179 60.3418 196.097 32.9158C139.026 5.49961 61.4643 39.5182 28.2889 106.48C-4.8864 173.431 7.28054 225.684 7.28054 225.684Z" fill="#00B533"/>
<path opacity="0.7" d="M7.28054 225.684C7.28054 225.684 18.8998 288.315 77.8328 322.253C136.756 356.193 210.007 348.096 269.547 343.097C329.088 338.098 369.262 297.825 368.396 246.35C367.53 194.872 320.246 186.935 287.061 133.239C253.876 79.552 253.179 60.3418 196.097 32.9158C139.026 5.49961 61.4643 39.5182 28.2889 106.48C-4.8864 173.431 7.28054 225.684 7.28054 225.684Z" fill="#00B533"/>
</g>
<path d="M280.439 101.083C279.592 100.685 278.696 100.376 277.781 100.177C272.414 98.892 266.142 97.8862 266.142 97.8862C266.142 97.8862 275.551 88.3757 271.966 84.2329C268.382 80.0901 262.129 86.4636 262.129 86.4636C262.129 86.4636 268.392 69.2452 259.451 66.6959C250.509 64.1463 240.672 83.2769 240.672 83.2769C240.672 83.2769 240.224 75.9374 235.754 76.8934C231.284 77.8495 230.387 86.4636 230.387 86.4636C230.387 86.4636 223.676 82.6396 221.895 86.145C220.112 89.6504 224.124 96.6613 224.124 96.6613C224.124 96.6613 216.528 92.1998 215.632 96.3426C215.294 97.8961 215.174 99.4895 215.273 101.083H280.439Z" stroke="#2E353A" stroke-width="0.9508" stroke-linecap="round" stroke-linejoin="round"/>
<path d="M345.754 101.083L328.33 98.7624C323.78 95.2371 318.285 93.1558 312.55 92.7873L310.558 92.6578C310.558 92.6578 315.288 86.9814 312.449 74.6725C309.612 62.3637 293.531 72.7804 293.531 72.7804C293.531 72.7804 305.33 61.567 303.438 51.1502C301.547 40.7335 285.02 49.1585 285.02 49.1585C285.02 49.1585 286.951 21.0752 266.102 22.0213C245.253 22.9673 241.449 55.781 241.449 55.781C241.449 55.781 226.783 37.9451 216.836 60.5213C215.362 63.8674 214.278 67.3729 213.59 70.958L213.173 70.5396C213.173 70.5396 205.377 61.0391 199.234 67.831C193.091 74.6228 193.807 84.7606 193.807 84.7606C193.807 84.7606 184.308 81.3748 181.938 85.4478C179.57 89.5209 184.986 94.2612 184.986 94.2612C184.986 94.2612 179.898 91.8911 176.163 95.2571C173.823 97.3782 171.364 99.6289 169.841 101.023L345.754 101.083Z" stroke="#2E353A" stroke-width="0.9508" stroke-linecap="round" stroke-linejoin="round"/>
<path d="M177.906 158.823L160.511 156.503C155.962 152.997 150.466 150.936 144.731 150.577L142.739 150.448C142.739 150.448 147.469 144.771 144.631 132.462C141.794 120.154 125.714 130.57 125.714 130.57C125.714 130.57 137.512 119.357 135.621 108.94C133.729 98.5234 117.201 106.898 117.201 106.898C117.201 106.898 119.132 78.8053 98.2833 79.7612C77.4343 80.7173 73.6309 113.521 73.6309 113.521C73.6309 113.521 58.9847 95.6852 49.0381 118.222C47.5646 121.568 46.4793 125.073 45.7923 128.658L45.3741 128.24C45.3741 128.24 37.5781 118.739 31.4348 125.531C25.2917 132.323 26.0086 142.461 26.0086 142.461C26.0086 142.461 16.51 139.075 14.1304 143.138C11.7507 147.201 17.2169 152.081 17.2169 152.081C17.2169 152.081 12.1291 149.711 8.39538 153.077C6.05557 155.198 3.5963 157.449 2.07294 158.843L177.906 158.823Z" stroke="#2E353A" stroke-width="0.9508" stroke-linecap="round" stroke-linejoin="round"/>
<path d="M125.146 233.682C125.146 233.682 125.265 237.826 126.022 238.662C126.779 239.498 128.153 240.543 128.153 241.421C128.153 242.297 126.779 247.326 127.157 247.704C127.485 248.141 128.113 248.221 128.551 247.893C128.74 247.754 128.869 247.554 128.919 247.326C129.716 244.577 130.263 241.759 130.552 238.911" fill="white"/>
<path d="M125.146 233.682C125.146 233.682 125.265 237.826 126.022 238.662C126.779 239.498 128.153 240.543 128.153 241.421C128.153 242.297 126.779 247.326 127.157 247.704C127.485 248.141 128.113 248.221 128.551 247.893C128.74 247.754 128.869 247.554 128.919 247.326C129.716 244.577 130.263 241.759 130.552 238.911" stroke="#2E353A" stroke-width="0.9508" stroke-linecap="round" stroke-linejoin="round"/>
<path d="M121.631 228.652L128.661 226.771" stroke="#2E353A" stroke-width="0.9508" stroke-linecap="round" stroke-linejoin="round"/>
<path d="M59.1045 189.345L66.7611 170.763" stroke="#2E353A" stroke-width="0.9508" stroke-linecap="round" stroke-linejoin="round"/>
<path d="M62.9973 180.811L70.156 171.769" stroke="#2E353A" stroke-width="0.9508" stroke-linecap="round" stroke-linejoin="round"/>
<path d="M99.528 149.541L104.805 143.646L99.6575 141.126L99.528 149.541Z" fill="white" stroke="#2E353A" stroke-width="0.9508" stroke-linecap="round" stroke-linejoin="round"/>
<path d="M87.4809 124.306C87.4809 124.306 83.9662 119.277 80.9492 119.904C77.9325 120.532 78.6892 124.933 80.7004 126.935C82.7117 128.937 86.2264 127.562 86.9731 127.064C86.9731 127.064 89.7411 133.717 92.499 133.976C95.2569 134.235 103.043 130.829 103.043 130.829" fill="white"/>
<path d="M87.4809 124.306C87.4809 124.306 83.9662 119.277 80.9492 119.904C77.9325 120.532 78.6892 124.933 80.7004 126.935C82.7117 128.937 86.2264 127.562 86.9731 127.064C86.9731 127.064 89.7411 133.717 92.499 133.976C95.2569 134.235 103.043 130.829 103.043 130.829" stroke="#2E353A" stroke-width="0.9508" stroke-linecap="round" stroke-linejoin="round"/>
<path d="M42.4054 253H24.394C23.6274 253 23 253.627 23 254.395V261.744C23 262.51 23.6274 263.137 24.394 263.137H26.5048C25.7382 263.137 25.1109 262.51 25.1109 261.744V256.943C25.1109 256.177 25.7382 255.55 26.5048 255.55H40.2946C41.0613 255.55 41.6885 256.177 41.6885 256.943V261.744C41.6885 262.51 41.0613 263.137 40.2946 263.137H42.4054C43.1722 263.137 43.7994 262.51 43.7994 261.744V254.395C43.7994 253.618 43.1722 253 42.4054 253Z" fill="#2E353A" stroke="#2E353A" stroke-width="0.9508" stroke-linecap="round" stroke-linejoin="round"/>
<path d="M158.854 204.598C158.854 204.598 150.91 226.211 149.137 237.146C147.363 248.083 143.84 278.554 143.84 278.554C137.599 285.442 133.493 293.652 131.93 302.377C129.725 316.318 130.46 335.09 130.46 335.09C130.46 335.09 128.698 337.435 128.698 338.611C128.698 339.789 128.99 342.392 128.99 342.392C125.747 344.622 122.655 347.006 119.715 349.548C116.484 352.542 117.067 357.756 117.067 359.182C117.067 360.607 118.981 362.703 120.019 362.703C121.057 362.703 128.103 361.525 131.685 358.924C135.266 356.321 135.359 350.982 136.246 348.598C137.133 346.212 143.105 339.222 143.105 339.222C144.949 339.046 146.407 337.754 146.605 336.123C146.897 333.264 147.632 328.183 147.923 327.14C148.215 326.096 160.581 308.388 163.369 297.709C166.157 287.032 174.848 271.026 177.94 263.994C181.031 256.963 187.645 242.641 187.645 242.641L188.976 242.247C188.976 242.247 186.467 273.227 185.732 283.005C184.997 292.784 184.846 295.242 184.846 308.129C184.846 321.017 190.585 342.205 190.585 342.205V348.845C190.585 349.238 191.752 349.63 193.968 349.755C196.185 349.877 202.671 349.908 204.293 350.787C205.914 351.664 212.529 352.346 219.295 352.087C226.061 351.829 229.596 350.787 228.861 349.609C228.126 348.433 216.507 344.447 214.594 343.361C212.68 342.278 208.236 339.687 208.236 339.687C208.236 339.687 208.539 336.31 207.501 334.74C206.463 333.169 206.031 333.315 206.031 331.642C206.031 329.97 210.3 307.808 211.479 297.266C212.657 286.723 218.98 271.739 219.423 260.546C219.866 249.352 218.688 240.751 217.65 227.988C217.043 220.356 215.515 212.808 213.1 205.466L158.854 204.598Z" fill="#2E353A" stroke="#2E353A" stroke-width="0.9508" stroke-linecap="round" stroke-linejoin="round"/>
<path d="M223.407 153.335C223.407 153.335 226.802 173.809 227.17 179.964C227.539 186.118 227.548 190.76 227.548 190.76L234.08 222.159L227.051 223.284C227.051 223.284 218.767 206.354 217.094 204.363C215.421 202.371 214.575 198.586 215.212 193.188C215.849 187.792 215.332 158.274 216.586 154.759C217.293 152.648 219.573 151.502 221.684 152.209C222.341 152.429 222.939 152.817 223.407 153.335Z" fill="white" stroke="#2E353A" stroke-width="0.9508" stroke-linecap="round" stroke-linejoin="round"/>
<path d="M232.548 222.308C232.548 222.308 235.196 232.323 234.461 238.447C234.181 240.781 230.635 247.565 229.9 247.957C229.188 248.164 228.406 248.164 227.695 247.957C228.231 246.678 228.675 245.376 229.013 244.044C229.165 243.011 229.316 240.141 229.316 240.141C228.465 241.814 227.485 243.425 226.365 244.964C225.373 245.851 224.23 246.595 222.982 247.173C222.457 247.141 221.967 246.905 221.664 246.522C221.372 246.13 222.83 245.222 223.577 243.786C224.323 242.351 225.49 239.656 225.49 239.656C224.428 240.864 223.262 241.989 221.99 243.031C220.835 243.786 219.541 244.353 218.164 244.726C217.72 244.726 216.846 243.301 217.289 243.167C217.732 243.031 221.407 241.215 221.839 240.564C222.247 240.017 222.69 239.5 223.168 239.004C221.442 239.625 219.669 240.141 217.872 240.564C217.137 240.564 216.846 239.532 216.846 239.532L221.699 237.321L222.865 234.709C222.27 232.705 222.27 230.599 222.865 228.595C223.892 225.601 224.335 223.516 224.335 223.516L232.548 222.308Z" fill="white" stroke="#2E353A" stroke-width="0.9508" stroke-linecap="round" stroke-linejoin="round"/>
<path d="M172.97 129.599C172.97 129.599 140.749 141.433 139.279 141.991C137.809 142.548 136.782 141.991 136.047 144.593C135.312 147.195 123.098 193.622 123.658 197.298C124.218 200.974 133.247 232.861 133.247 232.861L143.408 231.302L144.575 192.889L150.023 180.642C150.023 180.642 157.232 196.658 157.081 197.97C156.929 199.28 155.168 202.265 156.206 203.957C156.719 204.877 157.477 205.683 158.411 206.302H214.407C214.407 206.302 217.906 205.27 218.081 203.823C217.965 201.727 217.673 199.631 217.206 197.576C217.206 197.576 222.199 180.125 222.199 168.012C222.199 155.899 220.589 145.884 218.373 143.013C216.156 140.142 208.224 137.282 201.026 135.072C193.828 132.862 187.785 130.776 181.311 130.26C174.836 129.744 172.97 129.599 172.97 129.599Z" fill="white" stroke="#2E353A" stroke-width="0.9508" stroke-linecap="round" stroke-linejoin="round"/>
<path d="M197.387 139.357C197.387 139.357 202.38 159.204 202.38 170.335C202.38 181.467 202.718 194.788 203.395 196.904C204.071 199.022 205.109 202.635 202.718 205.053" stroke="#2E353A" stroke-width="0.9508" stroke-linecap="round" stroke-linejoin="round"/>
<path d="M132.221 228.814L143.409 227.77" stroke="#2E353A" stroke-width="0.9508" stroke-linecap="round" stroke-linejoin="round"/>
<path d="M203.57 133.244L206.953 139.616L199.3 135.847L203.57 133.244Z" fill="white" stroke="#2E353A" stroke-width="0.9508" stroke-linecap="round" stroke-linejoin="round"/>
<path d="M198.425 89.8843C198.425 89.8843 202.391 93.7876 202.391 94.9544C202.356 95.9148 202.263 96.8751 202.1 97.8252C202.1 97.8252 208.714 100.686 207.933 101.863C207.151 103.04 206.171 105.239 206.171 105.239C206.171 105.239 211.607 115.793 210.837 116.836C210.067 117.879 202.601 124.25 201.283 127.379C199.965 130.508 197.305 139.357 197.305 139.357L172.002 126.966C172.002 126.966 175.093 122.546 175.245 119.551C175.397 116.557 175.828 114.213 175.245 112.385C174.662 110.557 171.57 105.869 171.267 101.315C170.964 96.7615 176.563 91.4229 183.924 88.294C191.285 85.1652 198.425 89.8843 198.425 89.8843Z" fill="white" stroke="#2E353A" stroke-width="0.9508" stroke-linecap="round" stroke-linejoin="round"/>
<path d="M194.89 108.234C196.652 110.01 199.522 110.537 201.948 109.545" stroke="#2E353A" stroke-width="0.9508" stroke-linecap="round" stroke-linejoin="round"/>
<path d="M198.168 99.9524C198.565 100.706 198.425 101.501 197.877 101.718C197.328 101.935 196.558 101.522 196.162 100.768C195.765 100.014 195.917 99.2193 196.465 99.0025C197.013 98.7856 197.783 99.1986 198.168 99.9524Z" fill="#2E353A"/>
<path d="M192.09 99.3846C192.954 97.4433 195.193 96.2661 197.538 96.5242" stroke="#2E353A" stroke-width="1.9016" stroke-linecap="round" stroke-linejoin="round"/>
<path d="M180.915 111.497C180.915 111.497 184.741 111.497 184.741 109.669C184.741 107.841 181.801 104.206 182.536 102.379C183.271 100.551 186.794 99.2808 185.476 97.2982C184.158 95.3155 181.498 95.3466 182.98 94.0455C184.461 92.7444 195.334 94.4378 199.008 90.9477C202.683 87.4574 204.153 82.098 201.505 81.0654C198.857 80.0328 195.474 82.6247 195.474 82.6247C195.474 82.6247 193.712 78.9795 188.416 80.2807C183.12 81.5818 175.77 86.6623 171.652 91.7427C167.534 96.8232 166.052 98.6407 167.674 102.069C169.296 105.497 174.592 111.838 176.645 112.881C178.698 113.923 180.915 111.497 180.915 111.497Z" fill="#2E353A" stroke="#2E353A" stroke-width="0.9508" stroke-linecap="round" stroke-linejoin="round"/>
<path d="M192.825 132.325L197.387 139.357L188.567 135.454L192.825 132.325Z" fill="white" stroke="#2E353A" stroke-width="0.9508" stroke-linecap="round" stroke-linejoin="round"/>
<path d="M172.527 123.734L192.826 132.325L188.124 142.486L169.295 129.981L172.527 123.734Z" fill="white" stroke="#2E353A" stroke-width="0.9508" stroke-linecap="round" stroke-linejoin="round"/>
<path d="M133.247 232.861C133.247 232.861 130.156 243.538 130.739 245.356C131.322 247.173 132.956 248.227 133.072 248.619C133.294 249.198 133.049 249.836 132.477 250.177L131.742 250.571C131.742 250.571 131.159 250.571 131.602 251.345C131.777 251.769 132.104 252.13 132.536 252.378C133.504 252.811 134.099 251.933 134.974 251.82C135.849 251.706 136.397 252.553 137.225 252.502C138.054 252.449 138.497 251.716 139.302 251.779C140.107 251.84 140.632 253.131 141.798 252.677C142.3 252.47 142.662 252.027 143.163 251.799C143.91 251.458 144.971 251.552 145.636 251.046C146.173 250.55 146.5 249.909 146.57 249.228C146.838 247.896 143.373 231.271 143.373 231.271L133.247 232.861Z" fill="white" stroke="#2E353A" stroke-width="0.9508" stroke-linecap="round" stroke-linejoin="round"/>
<path d="M104.655 254.876H167.23C169.797 254.876 171.885 256.724 171.885 258.996V294.188C171.885 296.46 169.797 298.308 167.23 298.308H104.655C102.088 298.308 100 296.46 100 294.188V258.996C100 256.714 102.076 254.876 104.655 254.876Z" fill="#00B533" stroke="#2E353A" stroke-width="1.2223" stroke-miterlimit="10"/>
<path d="M100.163 258.883L134.157 280.134C136.047 281.332 138.579 281.332 140.469 280.134L171.698 260.02" stroke="#2E353A" stroke-width="0.9508" stroke-linecap="round" stroke-linejoin="round"/>
<path d="M140.166 277.274H134.38V284.471H140.166V277.274Z" fill="white" stroke="#2E353A" stroke-width="0.9508" stroke-linecap="round" stroke-linejoin="round"/>
</svg>
