<svg width="53" height="45" viewBox="0 0 53 45" fill="none" xmlns="http://www.w3.org/2000/svg">
<path d="M13.8764 8.8943L9.54 5.30575L6.14318 8.13248L10.4555 11.721L13.8764 8.8943ZM7.22727 20.2413H0V24.2509H7.22727V20.2413ZM28.9091 0.293823H24.0909V6.2079H28.9091V0.293823ZM46.8568 8.13248L43.46 5.30575L39.1477 8.8943L42.5445 11.721L46.8568 8.13248ZM39.1236 35.5979L43.4359 39.2065L46.8327 36.3797L42.4964 32.7912L39.1236 35.5979ZM45.7727 20.2413V24.2509H53V20.2413H45.7727ZM26.5 10.2174C18.5259 10.2174 12.0455 15.6103 12.0455 22.2461C12.0455 28.8819 18.5259 34.2747 26.5 34.2747C34.4741 34.2747 40.9545 28.8819 40.9545 22.2461C40.9545 15.6103 34.4741 10.2174 26.5 10.2174ZM24.0909 44.1983H28.9091V38.2843H24.0909V44.1983ZM6.14318 36.3597L9.54 39.1864L13.8523 35.5778L10.4555 32.7511L6.14318 36.3597Z" fill="white"/>
</svg>
