<svg width="51" height="51" viewBox="0 0 51 51" fill="none" xmlns="http://www.w3.org/2000/svg">
<path d="M8.5451 25.0697C8.62305 15.8825 16.1654 8.4671 25.3526 8.54505C34.5398 8.623 41.9552 16.1654 41.8772 25.3525C41.7993 34.5397 34.2569 41.9551 25.0698 41.8772C15.8826 41.7992 8.46715 34.2569 8.5451 25.0697ZM4.37858 25.0344C4.28101 36.5339 13.5348 45.9461 25.0344 46.0437C36.534 46.1413 45.9462 36.8875 46.0438 25.3879C46.1413 13.8883 36.8875 4.47611 25.3879 4.37853C13.8883 4.28096 4.47616 13.5348 4.37858 25.0344ZM25.2288 23.1279L16.8958 23.0572L16.8605 27.2237L25.1935 27.2944L25.1405 33.5442L33.5442 25.2818L25.2819 16.8781L25.2288 23.1279Z" fill="#00B533"/>
</svg>
